<mxfile host="app.diagrams.net" modified="2024-02-07T09:07:28.698Z" agent="Mozilla/5.0 (Windows NT 10.0; Win64; x64) AppleWebKit/537.36 (KHTML, like Gecko) Chrome/120.0.0.0 Safari/537.36 OPR/106.0.0.0" etag="8CmYPZqB319iPe4Iu_lD" version="23.0.2" type="github">
  <diagram name="Page-1" id="DhFH8UW1OhRTtuZgnRbS">
    <mxGraphModel dx="1009" dy="542" grid="1" gridSize="10" guides="1" tooltips="1" connect="1" arrows="1" fold="1" page="1" pageScale="1" pageWidth="850" pageHeight="1100" math="0" shadow="0">
      <root>
        <mxCell id="0" />
        <mxCell id="1" parent="0" />
        <mxCell id="ul1VcsPklIxqQ_TKtUNU-8" style="rounded=0;orthogonalLoop=1;jettySize=auto;html=1;exitX=0;exitY=1;exitDx=0;exitDy=0;entryX=1;entryY=0;entryDx=0;entryDy=0;" edge="1" parent="1" source="ul1VcsPklIxqQ_TKtUNU-1" target="ul1VcsPklIxqQ_TKtUNU-3">
          <mxGeometry relative="1" as="geometry" />
        </mxCell>
        <mxCell id="ul1VcsPklIxqQ_TKtUNU-1" value="A" style="ellipse;whiteSpace=wrap;html=1;aspect=fixed;" vertex="1" parent="1">
          <mxGeometry x="330" width="80" height="80" as="geometry" />
        </mxCell>
        <mxCell id="ul1VcsPklIxqQ_TKtUNU-12" style="edgeStyle=orthogonalEdgeStyle;rounded=0;orthogonalLoop=1;jettySize=auto;html=1;exitX=0.5;exitY=1;exitDx=0;exitDy=0;entryX=0.5;entryY=0;entryDx=0;entryDy=0;" edge="1" parent="1" source="ul1VcsPklIxqQ_TKtUNU-2" target="ul1VcsPklIxqQ_TKtUNU-5">
          <mxGeometry relative="1" as="geometry" />
        </mxCell>
        <mxCell id="ul1VcsPklIxqQ_TKtUNU-2" value="E" style="ellipse;whiteSpace=wrap;html=1;aspect=fixed;" vertex="1" parent="1">
          <mxGeometry x="450" y="320" width="80" height="80" as="geometry" />
        </mxCell>
        <mxCell id="ul1VcsPklIxqQ_TKtUNU-9" style="edgeStyle=orthogonalEdgeStyle;rounded=0;orthogonalLoop=1;jettySize=auto;html=1;entryX=0.5;entryY=0;entryDx=0;entryDy=0;" edge="1" parent="1" source="ul1VcsPklIxqQ_TKtUNU-3" target="ul1VcsPklIxqQ_TKtUNU-6">
          <mxGeometry relative="1" as="geometry" />
        </mxCell>
        <mxCell id="ul1VcsPklIxqQ_TKtUNU-3" value="B" style="ellipse;whiteSpace=wrap;html=1;aspect=fixed;" vertex="1" parent="1">
          <mxGeometry x="220" y="120" width="80" height="80" as="geometry" />
        </mxCell>
        <mxCell id="ul1VcsPklIxqQ_TKtUNU-11" style="edgeStyle=orthogonalEdgeStyle;rounded=0;orthogonalLoop=1;jettySize=auto;html=1;exitX=0.5;exitY=1;exitDx=0;exitDy=0;entryX=0.5;entryY=0;entryDx=0;entryDy=0;" edge="1" parent="1" source="ul1VcsPklIxqQ_TKtUNU-4" target="ul1VcsPklIxqQ_TKtUNU-2">
          <mxGeometry relative="1" as="geometry" />
        </mxCell>
        <mxCell id="ul1VcsPklIxqQ_TKtUNU-4" value="C" style="ellipse;whiteSpace=wrap;html=1;aspect=fixed;" vertex="1" parent="1">
          <mxGeometry x="450" y="200" width="80" height="80" as="geometry" />
        </mxCell>
        <mxCell id="ul1VcsPklIxqQ_TKtUNU-5" value="G" style="ellipse;whiteSpace=wrap;html=1;aspect=fixed;" vertex="1" parent="1">
          <mxGeometry x="450" y="460" width="80" height="80" as="geometry" />
        </mxCell>
        <mxCell id="ul1VcsPklIxqQ_TKtUNU-10" style="rounded=0;orthogonalLoop=1;jettySize=auto;html=1;exitX=1;exitY=1;exitDx=0;exitDy=0;entryX=0;entryY=0;entryDx=0;entryDy=0;" edge="1" parent="1" source="ul1VcsPklIxqQ_TKtUNU-6" target="ul1VcsPklIxqQ_TKtUNU-5">
          <mxGeometry relative="1" as="geometry" />
        </mxCell>
        <mxCell id="ul1VcsPklIxqQ_TKtUNU-6" value="D" style="ellipse;whiteSpace=wrap;html=1;aspect=fixed;" vertex="1" parent="1">
          <mxGeometry x="220" y="300" width="80" height="80" as="geometry" />
        </mxCell>
        <mxCell id="ul1VcsPklIxqQ_TKtUNU-13" style="rounded=0;orthogonalLoop=1;jettySize=auto;html=1;exitX=0;exitY=1;exitDx=0;exitDy=0;entryX=1;entryY=0.5;entryDx=0;entryDy=0;" edge="1" parent="1" source="ul1VcsPklIxqQ_TKtUNU-7" target="ul1VcsPklIxqQ_TKtUNU-5">
          <mxGeometry relative="1" as="geometry" />
        </mxCell>
        <mxCell id="ul1VcsPklIxqQ_TKtUNU-7" value="F" style="ellipse;whiteSpace=wrap;html=1;aspect=fixed;" vertex="1" parent="1">
          <mxGeometry x="640" y="360" width="80" height="80" as="geometry" />
        </mxCell>
      </root>
    </mxGraphModel>
  </diagram>
</mxfile>
